<svg width="806" height="200" viewBox="0 0 806 200" fill="none" xmlns="http://www.w3.org/2000/svg">
<path d="M146.924 200H27.7344V9.29678L52.7642 0H171.954V190.703L146.924 200Z" fill="#C4C4C4"/>
<path d="M171.119 0.715271H54.5372L29.8798 9.5353H147.296L171.119 0.715271Z" fill="white"/>
<path d="M171.238 190.725V0.83429L147.52 9.65431L146.924 200L171.238 190.725Z" fill="white"/>
<path d="M146.924 200H27.7344V9.29678L52.7642 0H171.954V190.703L146.924 200Z" fill="#90766E"/>
<path d="M171.119 0.715271H54.5372L29.8798 9.5353H147.296L171.119 0.715271Z" fill="#E0C9AF"/>
<path d="M171.238 190.725V0.83429L147.52 9.65431L146.924 200L171.238 190.725Z" fill="#E0C9AF"/>
<path d="M81.0088 56.1918L86.3432 47.8485L89.5042 51.9184L92.6653 54.9708L88.714 56.1918V60.2617L86.3432 64.535L90.6896 66.57L88.714 70.8434L93.258 74.3028L88.714 77.1517H90.6896V81.6286L83.9723 83.2565L82.1942 85.6984L83.9723 88.5474L88.714 85.6984L94.641 81.6286L99.3826 85.6984L103.136 91.3963L109.656 96.4836L114.003 99.9431L117.604 102.77L118.151 103.199L119.088 104.645C119.986 104.986 121.895 105.825 122.349 106.455C122.802 107.085 126.589 107.124 128.425 107.065L137.517 106.455L146.447 105.667L141.486 107.065L138.225 109.1L134.681 112.968L130.854 116.18L128.425 118.665L124.474 121.513L120.522 125.99L116.571 131.078L114.2 127.211L109.854 121.513L103.334 125.99L98.1972 129.45L93.4556 135.758L88.9115 144.101V140.031L86.5407 135.758L90.8872 133.723L88.9115 129.45L93.4556 125.99L88.9115 123.141H90.8872V118.665L84.1699 117.037L82.3918 114.595L84.1699 111.746L88.9115 114.595L94.8385 118.665L99.5802 114.595L104.124 111.949L109.854 103.809L114.881 102.415L109.656 101.164L103.136 96.8906L97.9996 92.8208L94.641 88.5474L93.258 91.3963L94.641 96.4836L99.3826 98.7221V101.164L101.951 103.199V109.1L96.4191 107.065L93.258 109.1C92.5783 108.893 91.5927 108.594 90.5637 108.286C88.9006 107.789 87.1243 107.266 86.3432 107.065C85.0787 106.74 82.2601 105.03 81.0088 104.216H71.5256L62.8326 105.234L67.1791 103.199L72.1183 101.164L76.8599 98.7221L82.1942 91.3963L67.1791 78.7796L64.2156 81.6286L69.5499 85.6984V91.3963L73.5013 96.4836H65.2035L56.9056 92.8208L48.8054 96.8906L39.3221 98.7221L29.6413 99.9431L39.3221 95.0592L46.6321 88.5474L54.7324 81.6286L61.2521 75.7272L64.2156 70.8434L67.1791 74.3028L69.5499 77.1517L73.5013 70.8434L81.0088 56.1918Z" fill="black"/>
<path d="M118.151 103.199L109.656 101.164L103.136 96.8906L97.9996 92.8207L94.641 88.5474L93.258 91.3963L94.641 96.4836L99.3826 98.7221V101.164L101.951 103.199V109.1L96.4191 107.065L93.258 109.1C91.4799 108.558 87.6076 107.391 86.3432 107.065C85.0787 106.74 82.2601 105.03 81.0088 104.216H71.5256L62.8326 105.234L67.1791 103.199L72.1183 101.164L76.8599 98.7221L82.1942 91.3963L67.1791 78.7796L64.2156 81.6286L69.5499 85.6984V91.3963L73.5013 96.4836H65.2035L56.9056 92.8207L48.8054 96.8906L39.3221 98.7221L29.6413 99.9431L39.3221 95.0592L46.6321 88.5474L54.7324 81.6286L61.2521 75.7272L64.2156 70.8434L67.1791 74.3028L69.5499 77.1517L73.5013 70.8434L81.0088 56.1918L86.3432 47.8485L89.5042 51.9184L92.6653 54.9708L88.714 56.1918M118.151 103.199L114.003 99.9431L109.656 96.4836L103.136 91.3963L99.3826 85.6984L94.641 81.6286L88.714 85.6984L83.9723 88.5474L82.1942 85.6984L83.9723 83.2565L90.6896 81.6286V77.1517H88.714L93.258 74.3028L88.714 70.8434L90.6896 66.57L86.3432 64.535L88.714 60.2617V56.1918M118.151 103.199L119.088 104.645C119.986 104.986 121.895 105.825 122.349 106.455C122.802 107.085 126.589 107.124 128.425 107.065L137.517 106.455L146.447 105.667L141.486 107.065L138.225 109.1L134.681 112.968L130.854 116.18L128.425 118.665M88.714 56.1918L93.258 64.535L97.9996 70.8434L103.136 74.3028L109.656 78.7796L114.003 73.0818L116.373 69.2154L120.325 74.3028L124.276 78.7796L128.227 81.6286L120.325 78.7796L116.373 75.7272V80.0006L112.817 83.2565L109.656 81.6286M29.8389 100.35L39.5197 105.234L46.8297 111.746L54.93 118.665L61.4497 124.566L64.4132 129.45L67.3767 125.99L69.7475 123.141L73.6988 129.45L81.2064 144.101L86.5407 152.445L89.3067 148.782L93.8507 144.712M117.756 102.792L114.99 102.385L109.854 103.809L104.124 111.949L99.5802 114.595L94.8385 118.665L88.9115 114.595L84.1699 111.746L82.3918 114.595L84.1699 117.037L90.8872 118.665V123.141H88.9115L93.4556 125.99L88.9115 129.45L90.8872 133.723L86.5407 135.758L88.9115 140.031V144.101L93.4556 135.758L98.1972 129.45L103.334 125.99L109.854 121.513L114.2 127.211L116.571 131.078L120.522 125.99L124.474 121.513L128.425 118.665M128.425 118.665L120.522 121.513L116.571 124.566V120.292L113.015 117.037L109.854 118.665M63.6229 105.234L66.3889 106.455L69.7475 108.897V114.595L64.4132 118.665L67.3767 121.513L82.3918 108.897L85.3553 108.286H90.8872" stroke="black" stroke-width="0.1"/>
<path d="M118.151 103.171L114.881 102.388L114.99 102.358L117.604 102.742L118.151 103.171Z" fill="black"/>
<path d="M109.656 81.6011L112.817 83.2291L116.373 79.9731V75.6998L120.325 78.7522L128.227 81.6011L124.276 78.7522L120.325 74.2753L116.373 69.1879L114.003 73.0543L109.656 78.7522L103.136 74.2753L97.9996 70.8159L93.258 64.5076L88.714 56.1643V60.2342L86.3432 64.5076L90.6896 66.5425L88.714 70.8159L93.258 74.2753L88.714 77.1242H90.6896V81.6011L83.9723 83.2291L82.1942 85.671L83.9723 88.5199L88.714 85.671L94.641 81.6011L99.3826 85.671L103.136 91.3688L109.656 96.4562L114.003 99.9156L118.151 103.171L109.656 101.137L103.136 96.8632L97.9996 92.7933L94.641 88.5199L93.258 91.3688L94.641 96.4562L99.3826 98.6946V101.137L101.951 103.171V109.073L96.4191 107.038L93.258 109.073C91.4799 108.53 87.6076 107.363 86.3432 107.038C85.0787 106.712 82.2601 105.003 81.0088 104.189H71.5256L62.8326 105.206L67.1791 103.171L72.1183 101.137L76.8599 98.6946L82.1942 91.3688L67.1791 78.7522L64.2156 81.6011L69.5499 85.671V91.3688L73.5013 96.4562H65.2035L56.9056 92.7933L48.8054 96.8632L39.3221 98.6946L29.6413 99.9156L39.3221 95.0317L46.6321 88.5199L54.7324 81.6011L61.2521 75.6998L64.2156 70.8159L67.1791 74.2753L69.5499 77.1242L73.5013 70.8159L81.0088 56.1643L86.3432 47.821L89.5042 51.8909L93.7144 55.7329M29.8389 100.323L39.5197 105.206L46.8297 111.718L54.93 118.637L61.4497 124.538L64.4132 129.422L67.3767 125.963L69.7475 123.114L73.6988 129.422L81.2064 144.074L86.5407 152.417L89.3067 148.754L93.8507 144.684M117.756 102.765L114.99 102.358L109.854 103.782L104.124 111.922L99.5802 114.567L94.8385 118.637L88.9115 114.567L84.1699 111.718L82.3918 114.567L84.1699 117.009L90.8872 118.637V123.114H88.9115L93.4556 125.963L88.9115 129.422L90.8872 133.696L86.5407 135.731L88.9115 140.004V144.074L93.4556 135.731L98.1972 129.422L103.334 125.963L109.854 121.486L114.2 127.184L116.571 131.05L120.522 125.963L124.474 121.486L128.425 118.637L120.522 121.486L116.571 124.538V120.265L113.015 117.009L109.854 118.637M63.6229 105.206L66.3889 106.427L69.7475 108.869V114.567L64.4132 118.637L67.3767 121.486L82.3918 108.869L85.3553 108.259H90.8872" stroke="black" stroke-width="0.1"/>
<path d="M256.465 117.675C255.775 117.982 255.238 117.828 254.855 117.215C254.548 116.602 254.242 115.988 253.935 115.375L234.96 70.755C234.807 70.525 234.692 70.18 234.615 69.72C233.925 67.88 232.775 66.8067 231.165 66.5C230.092 66.27 228.482 66.6917 226.335 67.765C226.105 67.9183 225.415 68.3017 224.265 68.915L224.15 70.755C224.227 70.755 224.687 70.5633 225.53 70.18C226.297 69.8733 226.872 70.18 227.255 71.1C227.408 71.56 227.37 71.9817 227.14 72.365L210.005 112.96C209.085 115.03 207.973 116.448 206.67 117.215C205.367 117.905 203.527 118.25 201.15 118.25V120.78L219.895 120.895V118.365H218.17C214.797 118.365 213.11 117.33 213.11 115.26C213.187 114.647 213.417 113.88 213.8 112.96L218.055 102.495L239.675 102.725L246.46 119.515C247.15 120.818 248.3 121.623 249.91 121.93C250.983 122.16 252.862 121.662 255.545 120.435C256.542 119.975 257.385 119.553 258.075 119.17V116.985L256.465 117.675ZM219.32 99.16L228.29 77.54C228.443 77.1567 228.673 76.4667 228.98 75.47C229.363 77.1567 230.092 79.3417 231.165 82.025L238.18 99.275L219.32 99.16ZM308.06 75.355C303.996 71.215 297.978 68.6083 290.005 67.535C288.395 67.305 286.785 66.73 285.175 65.81C283.795 64.89 281.878 63.05 279.425 60.29C278.811 59.2933 278.735 58.5267 279.195 57.99C279.195 57.9133 279.846 57.4533 281.15 56.61L279.54 55.23C279.31 55.3067 278.466 55.69 277.01 56.38C274.786 57.4533 273.176 58.565 272.18 59.715C271.566 60.5583 271.26 61.4783 271.26 62.475C271.26 63.5483 271.605 64.6983 272.295 65.925C272.601 66.4617 273.368 67.1133 274.595 67.88C275.898 68.6467 276.895 69.0683 277.585 69.145C279.271 69.6817 281.61 70.18 284.6 70.64C288.586 71.1767 290.925 71.5217 291.615 71.675C292.841 72.0583 294.106 72.48 295.41 72.94C297.02 73.4767 298.4 74.32 299.55 75.47H299.665C303.575 79.6867 305.491 85.8967 305.415 94.1C305.415 101.077 303.996 106.635 301.16 110.775C297.863 115.682 292.88 118.097 286.21 118.02C282.223 118.02 279.616 117.483 278.39 116.41C277.24 115.26 276.665 112.768 276.665 108.935L276.78 90.765C276.78 86.4717 276.895 83.7883 277.125 82.715C277.738 80.1083 279.195 78 281.495 76.39L279.425 74.665C276.281 75.7383 273.713 77.8083 271.72 80.875C270.723 82.4083 269.688 85.3983 268.615 89.845V92.835L268.5 111.695C268.5 114.455 267.81 116.257 266.43 117.1C265.51 117.637 263.478 117.982 260.335 118.135V120.665L287.82 120.895C295.87 120.972 302.386 118.595 307.37 113.765C312.43 108.858 314.998 102.38 315.075 94.33C315.075 86.8933 312.736 80.5683 308.06 75.355ZM364.88 73.17C363.654 70.7933 362.925 69.4517 362.695 69.145C361.545 67.6117 360.28 66.845 358.9 66.845C357.904 66.845 356.792 67.19 355.565 67.88C353.955 68.8 352.115 69.7583 350.045 70.755V72.71C351.195 72.1733 352.192 71.905 353.035 71.905C354.492 71.905 355.872 73.17 357.175 75.7C360.625 82.2167 362.35 87.6217 362.35 91.915C362.35 99.735 359.705 105.83 354.415 110.2C353.495 110.967 352.614 111.35 351.77 111.35C350.697 111.35 349.854 110.737 349.24 109.51C346.404 103.99 342.379 94.9817 337.165 82.485C335.019 77.425 332.795 72.5567 330.495 67.88C329.652 67.1133 328.502 66.73 327.045 66.73C325.512 66.73 324.132 67.075 322.905 67.765C321.295 68.685 319.455 69.6433 317.385 70.64V72.595C319.072 71.8283 320.337 71.5983 321.18 71.905C322.024 72.2117 322.867 73.3233 323.71 75.24L329.23 87.43L342.11 117.56C343.567 120.703 344.755 122.275 345.675 122.275C349.049 122.275 353.15 118.902 357.98 112.155C361.737 107.018 364.535 102.15 366.375 97.55C367.602 94.4833 368.215 91.2633 368.215 87.89C368.215 82.4467 367.104 77.54 364.88 73.17ZM413.86 104.105C413.707 106.788 412.71 109.433 410.87 112.04C409.03 114.647 406.884 116.333 404.43 117.1C402.36 117.713 399.332 118.02 395.345 118.02C390.209 117.943 387.41 116.065 386.95 112.385L387.065 94.675H390.975C393.275 94.675 394.885 95.25 395.805 96.4C396.419 97.2433 396.917 98.8917 397.3 101.345H399.37L399.485 86.05H397.415C397.185 90.19 395.039 92.26 390.975 92.26H387.065V83.29C387.065 78.9967 388.177 75.3933 390.4 72.48C392.854 69.26 396.189 67.65 400.405 67.65C402.475 67.65 404.392 68.455 406.155 70.065C407.919 71.675 408.839 73.515 408.915 75.585C408.915 77.195 408.455 78.46 407.535 79.38L409.72 79.955C412.327 77.3483 413.669 75.2783 413.745 73.745C413.822 72.135 412.94 70.525 411.1 68.915C410.027 68.225 408.992 67.4967 407.995 66.73C405.389 65.2733 402.705 64.545 399.945 64.545C394.962 64.4683 390.707 65.6567 387.18 68.11V67.65C386.414 65.58 385.072 64.4683 383.155 64.315C382.082 64.2383 380.319 64.7367 377.865 65.81C376.792 66.3467 376.025 66.73 375.565 66.96V69.03C375.719 68.8767 376.179 68.6467 376.945 68.34C378.095 67.88 378.709 68.1867 378.785 69.26C378.862 69.95 378.824 84.0567 378.67 111.58C378.67 114.417 377.98 116.257 376.6 117.1C375.68 117.637 373.649 117.982 370.505 118.135V120.55L415.01 120.895L416.16 104.105H413.86ZM474.12 71.33C475.27 70.64 477.148 70.2567 479.755 70.18V67.65L458.25 67.42V69.95C460.856 70.1033 462.696 70.6017 463.77 71.445C464.843 72.2883 465.38 73.975 465.38 76.505L465.495 112.27C465.495 114.11 464.651 115.03 462.965 115.03C462.045 115.03 460.933 114.647 459.63 113.88C456.64 112.117 453.688 109.203 450.775 105.14C450.238 104.373 448.015 101 444.105 95.02C438.431 86.28 435.326 80.0317 434.79 76.275V72.94C434.943 69.03 433.563 66.9217 430.65 66.615C429.576 66.4617 427.966 66.8833 425.82 67.88C424.976 68.2633 424.248 68.6467 423.635 69.03V70.87C423.788 70.7933 424.248 70.6017 425.015 70.295C426.088 69.835 426.663 70.1033 426.74 71.1C426.74 71.6367 426.74 71.905 426.74 71.905V73.975C426.816 74.5117 426.855 75.125 426.855 75.815L426.625 112.04C426.625 114.723 425.935 116.525 424.555 117.445C423.635 118.058 421.603 118.403 418.46 118.48V121.01H442.61V118.71C439.543 118.48 437.55 118.097 436.63 117.56C435.25 116.717 434.56 114.877 434.56 112.04V108.475L434.675 95.94C436.438 99.5433 440.041 104.182 445.485 109.855C449.395 113.842 453.611 116.832 458.135 118.825C461.355 120.205 464.076 120.895 466.3 120.895C471.206 120.895 473.66 120.895 473.66 120.895C476.42 120.895 478.221 120.933 479.065 121.01V118.48C475.998 118.327 474.311 118.173 474.005 118.02C472.855 117.407 472.28 115.643 472.28 112.73L472.51 76.62C472.51 73.7067 473.046 71.9433 474.12 71.33ZM525.264 114.915C523.347 117.368 519.936 118.595 515.029 118.595C508.896 118.518 504.181 115.758 500.884 110.315C498.277 105.792 496.974 100.233 496.974 93.64C497.051 82.4467 500.002 75.3933 505.829 72.48L508.129 71.33L523.194 71.215L523.309 67.305L507.094 67.19V67.075C507.017 67.075 506.941 67.1133 506.864 67.19L483.519 66.96L482.024 80.185H484.439C485.436 76.8883 486.317 74.78 487.084 73.86C488.234 72.4033 490.189 71.5217 492.949 71.215L499.734 71.33C491.224 76.5433 486.931 84.5167 486.854 95.25C486.777 102.84 488.617 109.012 492.374 113.765C496.514 118.978 502.264 121.7 509.624 121.93C518.287 122.237 524.076 120.052 526.989 115.375L525.264 114.915ZM573.464 70.41C574.614 69.72 576.493 69.3367 579.099 69.26V66.73L557.594 66.615V69.145C560.278 69.2983 562.079 69.72 562.999 70.41C564.149 71.33 564.724 73.0933 564.724 75.7L564.494 107.67C562.348 113.573 558.016 116.487 551.499 116.41C542.069 116.333 537.354 112.27 537.354 104.22C537.354 102.303 537.623 100.425 538.159 98.585H538.044L542.644 75.24C543.181 73.4 543.449 71.8283 543.449 70.525C543.449 69.6817 543.296 68.9917 542.989 68.455C542.683 67.9183 542.299 67.3817 541.839 66.845C541.456 66.3083 540.843 66.0017 539.999 65.925C538.926 65.7717 537.278 66.2317 535.054 67.305C534.518 67.535 533.828 67.88 532.984 68.34V70.18C533.214 70.0267 533.636 69.835 534.249 69.605C535.323 69.145 535.898 69.4517 535.974 70.525C535.898 70.985 535.591 72.5567 535.054 75.24C534.901 76.0067 533.023 84.4017 529.419 100.425L529.534 100.54C529.381 101.537 529.304 102.495 529.304 103.415C529.304 107.018 530.378 110.238 532.524 113.075C536.358 118.212 541.686 120.818 548.509 120.895C555.103 120.895 560.316 119.285 564.149 116.065V117.675H564.264V120.895H578.754V118.48C575.994 118.327 574.269 118.02 573.579 117.56C572.276 116.717 571.624 114.838 571.624 111.925L571.854 75.7C571.854 72.7867 572.391 71.0233 573.464 70.41ZM633.279 113.765L632.014 114.8C631.247 115.413 630.519 115.26 629.829 114.34C629.675 114.033 625.497 109.242 617.294 99.965C625.114 97.0517 629.024 91.4933 629.024 83.29C629.024 74.3967 624.577 68.7617 615.684 66.385C613.92 65.925 612.272 65.695 610.739 65.695C605.142 65.695 600.849 67.4583 597.859 70.985V70.755C597.552 68.0717 596.172 66.5767 593.719 66.27C592.569 66.1167 590.92 66.5383 588.774 67.535C587.93 67.9183 587.24 68.3017 586.704 68.685V70.525L587.969 69.95C588.812 69.5667 589.31 69.605 589.464 70.065C589.617 70.525 589.732 71.0233 589.809 71.56L589.694 73.63C589.77 74.1667 589.809 74.78 589.809 75.47L589.579 111.695C589.579 114.455 588.889 116.257 587.509 117.1C586.512 117.713 584.48 118.058 581.414 118.135V120.665L605.679 120.78V118.25C602.535 118.097 600.504 117.752 599.584 117.215C598.28 116.448 597.629 114.608 597.629 111.695L597.859 81.335C597.859 75.9683 600.274 72.25 605.104 70.18C606.56 69.5667 608.094 69.26 609.704 69.26C611.85 69.26 613.92 69.8733 615.914 71.1C620.054 73.63 621.932 78.0383 621.549 84.325C621.395 87.1617 620.744 89.7683 619.594 92.145C618.137 95.0583 616.259 96.8217 613.959 97.435C613.039 97.665 612.234 97.78 611.544 97.78C609.934 97.78 607.595 96.8983 604.529 95.135L603.149 96.285L622.009 117.905C623.235 119.822 624.807 120.742 626.724 120.665C627.72 120.588 629.407 119.592 631.784 117.675C632.704 116.908 633.394 116.295 633.854 115.835L633.279 113.765ZM691.766 71.33C692.916 70.64 694.794 70.2567 697.401 70.18V67.65L675.896 67.42V69.95C678.503 70.1033 680.343 70.6017 681.416 71.445C682.489 72.2883 683.026 73.975 683.026 76.505L683.141 112.27C683.141 114.11 682.298 115.03 680.611 115.03C679.691 115.03 678.579 114.647 677.276 113.88C674.286 112.117 671.334 109.203 668.421 105.14C667.884 104.373 665.661 101 661.751 95.02C656.078 86.28 652.973 80.0317 652.436 76.275V72.94C652.589 69.03 651.209 66.9217 648.296 66.615C647.223 66.4617 645.613 66.8833 643.466 67.88C642.623 68.2633 641.894 68.6467 641.281 69.03V70.87C641.434 70.7933 641.894 70.6017 642.661 70.295C643.734 69.835 644.309 70.1033 644.386 71.1C644.386 71.6367 644.386 71.905 644.386 71.905V73.975C644.463 74.5117 644.501 75.125 644.501 75.815L644.271 112.04C644.271 114.723 643.581 116.525 642.201 117.445C641.281 118.058 639.249 118.403 636.106 118.48V121.01H660.256V118.71C657.189 118.48 655.196 118.097 654.276 117.56C652.896 116.717 652.206 114.877 652.206 112.04V108.475L652.321 95.94C654.084 99.5433 657.688 104.182 663.131 109.855C667.041 113.842 671.258 116.832 675.781 118.825C679.001 120.205 681.723 120.895 683.946 120.895C688.853 120.895 691.306 120.895 691.306 120.895C694.066 120.895 695.868 120.933 696.711 121.01V118.48C693.644 118.327 691.958 118.173 691.651 118.02C690.501 117.407 689.926 115.643 689.926 112.73L690.156 76.62C690.156 73.7067 690.693 71.9433 691.766 71.33ZM754.986 117.675C754.296 117.982 753.759 117.828 753.376 117.215C753.069 116.602 752.762 115.988 752.456 115.375L733.481 70.755C733.327 70.525 733.212 70.18 733.136 69.72C732.446 67.88 731.296 66.8067 729.686 66.5C728.612 66.27 727.002 66.6917 724.856 67.765C724.626 67.9183 723.936 68.3017 722.786 68.915L722.671 70.755C722.747 70.755 723.207 70.5633 724.051 70.18C724.817 69.8733 725.392 70.18 725.776 71.1C725.929 71.56 725.891 71.9817 725.661 72.365L708.526 112.96C707.606 115.03 706.494 116.448 705.191 117.215C703.887 117.905 702.047 118.25 699.671 118.25V120.78L718.416 120.895V118.365H716.691C713.317 118.365 711.631 117.33 711.631 115.26C711.707 114.647 711.937 113.88 712.321 112.96L716.576 102.495L738.196 102.725L744.981 119.515C745.671 120.818 746.821 121.623 748.431 121.93C749.504 122.16 751.382 121.662 754.066 120.435C755.062 119.975 755.906 119.553 756.596 119.17V116.985L754.986 117.675ZM717.841 99.16L726.811 77.54C726.964 77.1567 727.194 76.4667 727.501 75.47C727.884 77.1567 728.612 79.3417 729.686 82.025L736.701 99.275L717.841 99.16ZM802.21 104.105C801.98 106.942 800.983 109.625 799.22 112.155C797.533 114.685 795.387 116.333 792.78 117.1C790.71 117.713 787.682 118.02 783.695 118.02C781.855 118.02 777.753 117.943 771.39 117.79C773.92 116.64 775.185 114.302 775.185 110.775L775.415 72.48C775.568 68.4167 774.188 66.27 771.275 66.04C770.278 65.9633 768.668 66.4233 766.445 67.42C765.908 67.65 765.18 67.995 764.26 68.455V70.295C764.413 70.2183 764.835 70.065 765.525 69.835C765.908 69.6817 766.215 69.605 766.445 69.605C766.982 69.605 767.25 69.95 767.25 70.64C767.25 70.41 767.212 73.86 767.135 80.99C767.135 90.19 767.097 100.387 767.02 111.58C767.02 114.417 766.368 116.218 765.065 116.985C764.145 117.522 762.113 117.867 758.97 118.02L758.855 118.135L758.97 120.895H803.475L804.625 104.105H802.21Z" fill="black"/>
</svg>
