<svg width="50" height="50" viewBox="0 0 50 50" fill="none" xmlns="http://www.w3.org/2000/svg">
<path d="M36.731 50H6.93359V2.3242L13.191 0H42.9884V47.6758L36.731 50Z" fill="#C4C4C4"/>
<path d="M42.7798 0.178833H13.6343L7.46994 2.38384H36.8241L42.7798 0.178833Z" fill="white"/>
<path d="M42.8096 47.6813V0.208557L36.8799 2.41356L36.731 50L42.8096 47.6813Z" fill="white"/>
<path d="M36.731 50H6.93359V2.3242L13.191 0H42.9884V47.6758L36.731 50Z" fill="#374237"/>
<path d="M42.7798 0.178833H13.6343L7.46994 2.38384H36.8241L42.7798 0.178833Z" fill="#E0C9A6"/>
<path d="M42.8096 47.6813V0.208557L36.8799 2.41356L36.731 50L42.8096 47.6813Z" fill="#E0C9A6"/>
<path d="M20.2522 14.048L21.5858 11.9622L22.3761 12.9796L23.1663 13.7427L22.1785 14.048V15.0654L21.5858 16.1338L22.6724 16.6425L22.1785 17.7109L23.3145 18.5757L22.1785 19.288H22.6724V20.4072L20.9931 20.8142L20.5486 21.4246L20.9931 22.1369L22.1785 21.4246L23.6602 20.4072L24.8456 21.4246L25.7841 22.8491L27.414 24.1209L28.5006 24.9858L29.4011 25.6924L29.5379 25.7998L29.7721 26.1614C29.9966 26.2465 30.4738 26.4562 30.5872 26.6137C30.7006 26.7713 31.6471 26.7811 32.1062 26.7664L34.3791 26.6137L36.6118 26.4169L35.3714 26.7664L34.5563 27.2751L33.6704 28.242L32.7135 29.045L32.1062 29.6662L31.1184 30.3784L30.1306 31.4976L29.1427 32.7694L28.55 31.8029L27.4634 30.3784L25.8335 31.4976L24.5493 32.3625L23.3639 33.9395L22.2279 36.0254V35.0079L21.6352 33.9395L22.7218 33.4308L22.2279 32.3625L23.3639 31.4976L22.2279 30.7854H22.7218V29.6662L21.0425 29.2592L20.598 28.6487L21.0425 27.9365L22.2279 28.6487L23.7096 29.6662L24.895 28.6487L26.0311 27.9873L27.4634 25.9524L28.7201 25.6039L27.414 25.291L25.7841 24.2227L24.4999 23.2052L23.6602 22.1369L23.3145 22.8491L23.6602 24.1209L24.8456 24.6806V25.291L25.4877 25.7998V27.2751L24.1048 26.7664L23.3145 27.2751C23.1446 27.2232 22.8982 27.1486 22.6409 27.0716C22.2252 26.9472 21.7811 26.8167 21.5858 26.7664C21.2697 26.685 20.565 26.2576 20.2522 26.0541H17.8814L15.7082 26.3085L16.7948 25.7998L18.0296 25.291L19.215 24.6806L20.5486 22.8491L16.7948 19.6949L16.0539 20.4072L17.3875 21.4246V22.8491L18.3753 24.1209H16.3009L14.2264 23.2052L12.2013 24.2227L9.83053 24.6806L7.41034 24.9858L9.83053 23.7648L11.658 22.1369L13.6831 20.4072L15.313 18.9318L16.0539 17.7109L16.7948 18.5757L17.3875 19.288L18.3753 17.7109L20.2522 14.048Z" fill="#C1A84F"/>
<path d="M29.5379 25.7998L27.414 25.291L25.7841 24.2227L24.4999 23.2052L23.6602 22.1369L23.3145 22.8491L23.6602 24.1209L24.8456 24.6806V25.291L25.4877 25.7998V27.2751L24.1048 26.7664L23.3145 27.2751C22.87 27.1394 21.9019 26.8478 21.5858 26.7664C21.2697 26.685 20.565 26.2576 20.2522 26.0541H17.8814L15.7082 26.3085L16.7948 25.7998L18.0296 25.291L19.215 24.6806L20.5486 22.8491L16.7948 19.6949L16.0539 20.4072L17.3875 21.4246V22.8491L18.3753 24.1209H16.3009L14.2264 23.2052L12.2013 24.2227L9.83053 24.6806L7.41034 24.9858L9.83053 23.7648L11.658 22.1369L13.6831 20.4072L15.313 18.9318L16.0539 17.7109L16.7948 18.5757L17.3875 19.288L18.3753 17.7109L20.2522 14.048L21.5858 11.9622L22.3761 12.9796L23.1663 13.7427L22.1785 14.048M29.5379 25.7998L28.5006 24.9858L27.414 24.1209L25.7841 22.8491L24.8456 21.4246L23.6602 20.4072L22.1785 21.4246L20.9931 22.1369L20.5486 21.4246L20.9931 20.8142L22.6724 20.4072V19.288H22.1785L23.3145 18.5757L22.1785 17.7109L22.6724 16.6425L21.5858 16.1338L22.1785 15.0654V14.048M29.5379 25.7998L29.7721 26.1614C29.9966 26.2465 30.4738 26.4562 30.5872 26.6137C30.7006 26.7713 31.6471 26.7811 32.1062 26.7664L34.3791 26.6137L36.6118 26.4169L35.3714 26.7664L34.5563 27.2751L33.6704 28.242L32.7135 29.045L32.1062 29.6662M22.1785 14.048L23.3145 16.1338L24.4999 17.7109L25.7841 18.5757L27.414 19.6949L28.5006 18.2705L29.0933 17.3039L30.0812 18.5757L31.069 19.6949L32.0569 20.4072L30.0812 19.6949L29.0933 18.9318V20.0002L28.2043 20.8142L27.414 20.4072M7.45973 25.0875L9.87993 26.3085L11.7074 27.9365L13.7325 29.6662L15.3624 31.1415L16.1033 32.3625L16.8442 31.4976L17.4369 30.7854L18.4247 32.3625L20.3016 36.0254L21.6352 38.1112L22.3267 37.1955L23.4627 36.178M29.4391 25.698L28.7476 25.5963L27.4634 25.9524L26.0311 27.9873L24.895 28.6487L23.7096 29.6662L22.2279 28.6487L21.0425 27.9365L20.598 28.6487L21.0425 29.2592L22.7218 29.6662V30.7854H22.2279L23.3639 31.4976L22.2279 32.3625L22.7218 33.4308L21.6352 33.9395L22.2279 35.0079V36.0254L23.3639 33.9395L24.5493 32.3625L25.8335 31.4976L27.4634 30.3784L28.55 31.8029L29.1427 32.7694L30.1306 31.4976L31.1184 30.3784L32.1062 29.6662M32.1062 29.6662L30.1306 30.3784L29.1427 31.1415V30.0732L28.2537 29.2592L27.4634 29.6662M15.9057 26.3085L16.5972 26.6137L17.4369 27.2242V28.6487L16.1033 29.6662L16.8442 30.3784L20.598 27.2242L21.3388 27.0716H22.7218" stroke="#C1A84F" stroke-width="0.3"/>
<path d="M29.5379 25.7929L28.7201 25.597L28.7476 25.5894L29.4011 25.6855L29.5379 25.7929Z" fill="#C1A84F"/>
<path d="M27.414 20.4003L28.2043 20.8073L29.0933 19.9933V18.9249L30.0812 19.688L32.0569 20.4003L31.069 19.688L30.0812 18.5688L29.0933 17.297L28.5006 18.2636L27.414 19.688L25.7841 18.5688L24.4999 17.704L23.3145 16.1269L22.1785 14.0411V15.0585L21.5858 16.1269L22.6724 16.6356L22.1785 17.704L23.3145 18.5688L22.1785 19.2811H22.6724V20.4003L20.9931 20.8073L20.5486 21.4177L20.9931 22.13L22.1785 21.4177L23.6602 20.4003L24.8456 21.4177L25.7841 22.8422L27.414 24.114L28.5006 24.9789L29.5379 25.7929L27.414 25.2841L25.7841 24.2158L24.4999 23.1983L23.6602 22.13L23.3145 22.8422L23.6602 24.114L24.8456 24.6737V25.2841L25.4877 25.7929V27.2682L24.1048 26.7595L23.3145 27.2682C22.87 27.1325 21.9019 26.8409 21.5858 26.7595C21.2697 26.6781 20.565 26.2507 20.2522 26.0472H17.8814L15.7082 26.3016L16.7948 25.7929L18.0296 25.2841L19.215 24.6737L20.5486 22.8422L16.7948 19.688L16.0539 20.4003L17.3875 21.4177V22.8422L18.3753 24.114H16.3009L14.2264 23.1983L12.2013 24.2158L9.83053 24.6737L7.41034 24.9789L9.83053 23.7579L11.658 22.13L13.6831 20.4003L15.313 18.9249L16.0539 17.704L16.7948 18.5688L17.3875 19.2811L18.3753 17.704L20.2522 14.0411L21.5858 11.9553L22.3761 12.9727L23.4286 13.9332M7.45973 25.0806L9.87993 26.3016L11.7074 27.9296L13.7325 29.6593L15.3624 31.1346L16.1033 32.3556L16.8442 31.4907L17.4369 30.7785L18.4247 32.3556L20.3016 36.0185L21.6352 38.1043L22.3267 37.1886L23.4627 36.1711M29.4391 25.6911L28.7476 25.5894L27.4634 25.9455L26.0311 27.9804L24.895 28.6418L23.7096 29.6593L22.2279 28.6418L21.0425 27.9296L20.598 28.6418L21.0425 29.2523L22.7218 29.6593V30.7785H22.2279L23.3639 31.4907L22.2279 32.3556L22.7218 33.4239L21.6352 33.9326L22.2279 35.001V36.0185L23.3639 33.9326L24.5493 32.3556L25.8335 31.4907L27.4634 30.3715L28.55 31.796L29.1427 32.7626L30.1306 31.4907L31.1184 30.3715L32.1062 29.6593L30.1306 30.3715L29.1427 31.1346V30.0663L28.2537 29.2523L27.4634 29.6593M15.9057 26.3016L16.5972 26.6069L17.4369 27.2173V28.6418L16.1033 29.6593L16.8442 30.3715L20.598 27.2173L21.3388 27.0647H22.7218" stroke="#C1A84F" stroke-width="0.3"/>
</svg>
