<svg width="50" height="60" viewBox="0 0 607 839" fill="none" xmlns="http://www.w3.org/2000/svg">
<path d="M502 839H2V39L107 0H607V800L502 839Z" fill="#C4C4C4"/>
<path d="M603.5 3H114.438L11 40H503.562L603.5 3Z" fill="white"/>
<path d="M604 800.093V3.5L504.5 40.5L502 839L604 800.093Z" fill="white"/>
<path d="M221.884 126.964L244.718 91.25L258.25 108.672L271.781 121.738L254.867 126.964V144.386L244.718 162.679L263.324 171.389L254.867 189.682L274.318 204.49L254.867 216.686H263.324V235.849L234.57 242.818L226.959 253.271L234.57 265.466L254.867 253.271L280.238 235.849L300.535 253.271L316.604 277.661L344.512 299.438L363.118 314.247L378.536 326.346L380.878 328.184L384.888 334.375C388.731 335.833 396.903 339.424 398.845 342.121C400.786 344.818 416.994 344.987 424.854 344.734L463.772 342.121L502 338.75L480.762 344.734L466.806 353.445L451.636 370L435.252 383.75L424.854 394.386L407.94 406.581L391.026 425.745L374.112 447.522L363.963 430.971L345.358 406.581L317.449 425.745L295.461 440.553L275.164 467.557L255.713 503.271V485.849L245.564 467.557L264.17 458.846L255.713 440.553L275.164 425.745L255.713 413.55H264.17V394.386L235.416 387.417L227.804 376.964L235.416 364.769L255.713 376.964L281.084 394.386L301.381 376.964L320.832 365.64L345.358 330.797L366.876 324.83L344.512 319.473L316.604 301.18L294.615 283.759L280.238 265.466L274.318 277.661L280.238 299.438L300.535 309.02V319.473L311.529 328.184V353.445L287.85 344.734L274.318 353.445C271.409 352.557 267.19 351.279 262.785 349.961C255.666 347.83 248.062 345.595 244.718 344.734C239.306 343.341 227.24 336.023 221.884 332.539H181.29L144.079 336.895L162.685 328.184L183.827 319.473L204.124 309.02L226.959 277.661L162.685 223.654L149.999 235.849L172.833 253.271V277.661L189.747 299.438H154.228L118.708 283.759L84.0338 301.18L43.4397 309.02L2 314.247L43.4397 293.341L74.731 265.466L109.405 235.849L137.313 210.588L149.999 189.682L162.685 204.49L172.833 216.686L189.747 189.682L221.884 126.964Z" fill="black"/>
<path d="M380.878 328.184L344.512 319.473L316.604 301.18L294.615 283.759L280.238 265.466L274.318 277.661L280.238 299.438L300.535 309.02V319.473L311.529 328.184V353.445L287.85 344.734L274.318 353.445C266.707 351.122 250.131 346.128 244.718 344.734C239.306 343.341 227.24 336.023 221.884 332.539H181.29L144.079 336.895L162.685 328.184L183.827 319.473L204.124 309.02L226.959 277.661L162.685 223.654L149.999 235.849L172.833 253.271V277.661L189.747 299.438H154.228L118.708 283.759L84.0338 301.18L43.4397 309.02L2 314.247L43.4397 293.341L74.731 265.466L109.405 235.849L137.313 210.588L149.999 189.682L162.685 204.49L172.833 216.686L189.747 189.682L221.884 126.964L244.718 91.25L258.25 108.672L271.781 121.738L254.867 126.964M380.878 328.184L363.118 314.247L344.512 299.438L316.604 277.661L300.535 253.271L280.238 235.849L254.867 253.271L234.57 265.466L226.959 253.271L234.57 242.818L263.324 235.849V216.686H254.867L274.318 204.49L254.867 189.682L263.324 171.389L244.718 162.679L254.867 144.386V126.964M380.878 328.184L384.888 334.375C388.731 335.833 396.903 339.424 398.845 342.121C400.786 344.818 416.994 344.987 424.854 344.734L463.772 342.121L502 338.75L480.762 344.734L466.806 353.445L451.636 370L435.252 383.75L424.854 394.386M254.867 126.964L274.318 162.679L294.615 189.682L316.604 204.49L344.512 223.654L363.118 199.264L373.266 182.713L390.18 204.49L407.095 223.654L424.009 235.849L390.18 223.654L373.266 210.588V228.881L358.043 242.818L344.512 235.849M2.84571 315.989L44.2854 336.895L75.5767 364.769L110.251 394.386L138.159 419.647L150.845 440.553L163.53 425.745L173.679 413.55L190.593 440.553L222.73 503.271L245.564 538.985L257.404 523.306L276.855 505.884M379.186 326.442L367.346 324.699L345.358 330.797L320.832 365.64L301.381 376.964L281.084 394.386L255.713 376.964L235.416 364.769L227.804 376.964L235.416 387.417L264.17 394.386V413.55H255.713L275.164 425.745L255.713 440.553L264.17 458.846L245.564 467.557L255.713 485.849V503.271L275.164 467.557L295.461 440.553L317.449 425.745L345.358 406.581L363.963 430.971L374.112 447.522L391.026 425.745L407.94 406.581L424.854 394.386M424.854 394.386L391.026 406.581L374.112 419.647V401.355L358.889 387.417L345.358 394.386M147.462 336.895L159.302 342.121L173.679 352.574V376.964L150.845 394.386L163.53 406.581L227.804 352.574L240.49 349.961H264.17" stroke="black" stroke-width="5"/>
<path d="M344.512 235.732L358.043 242.7L373.266 228.763V210.47L390.18 223.537L424.009 235.732L407.095 223.537L390.18 204.373L373.266 182.596L363.118 199.146L344.512 223.537L316.604 204.373L294.615 189.564L274.318 162.561L254.867 126.847V144.268L244.718 162.561L263.324 171.272L254.867 189.564L274.318 204.373L254.867 216.568H263.324V235.732L234.57 242.7L226.959 253.153L234.57 265.348L254.867 253.153L280.238 235.732L300.535 253.153L316.604 277.544L344.512 299.321L363.118 314.129L380.878 328.066L344.512 319.355L316.604 301.063L294.615 283.641L280.238 265.348L274.318 277.544L280.238 299.321L300.535 308.902V319.355L311.529 328.066V353.328L287.85 344.617L274.318 353.328C266.707 351.005 250.131 346.01 244.718 344.617C239.306 343.223 227.24 335.906 221.884 332.422H181.29L144.079 336.777L162.685 328.066L183.827 319.355L204.124 308.902L226.959 277.544L162.685 223.537L149.999 235.732L172.833 253.153V277.544L189.747 299.321H154.228L118.708 283.641L84.0338 301.063L43.4397 308.902L2 314.129L43.4397 293.223L74.731 265.348L109.405 235.732L137.313 210.47L149.999 189.564L162.685 204.373L172.833 216.568L189.747 189.564L221.884 126.847L244.718 91.1324L258.25 108.554L276.272 125M2.84571 315.871L44.2854 336.777L75.5767 364.652L110.251 394.268L138.159 419.53L150.845 440.436L163.53 425.627L173.679 413.432L190.593 440.436L222.73 503.153L245.564 538.868L257.404 523.188L276.855 505.767M379.186 326.324L367.346 324.582L345.358 330.679L320.832 365.523L301.381 376.847L281.084 394.268L255.713 376.847L235.416 364.652L227.804 376.847L235.416 387.3L264.17 394.268V413.432H255.713L275.164 425.627L255.713 440.436L264.17 458.728L245.564 467.439L255.713 485.732V503.153L275.164 467.439L295.461 440.436L317.449 425.627L345.358 406.463L363.963 430.854L374.112 447.404L391.026 425.627L407.94 406.463L424.854 394.268L391.026 406.463L374.112 419.53V401.237L358.889 387.3L345.358 394.268M147.462 336.777L159.302 342.003L173.679 352.456V376.847L150.845 394.268L163.53 406.463L227.804 352.456L240.49 349.843H264.17" stroke="black" stroke-width="5"/>
<path d="M502 839H2V39L107 0H607V800L502 839Z" fill="#90766E"/>
<path d="M603.5 3H114.438L11 40H503.562L603.5 3Z" fill="#E0C9AF"/>
<path d="M604 800.093V3.5L504.5 40.5L502 839L604 800.093Z" fill="#E0C9AF"/>
<path d="M225.487 235.725L247.864 200.725L261.125 217.798L274.386 230.603L257.81 235.725V252.798L247.864 270.725L266.098 279.262L257.81 297.188L276.872 311.701L257.81 323.652H266.098V342.432L237.919 349.262L230.459 359.505L237.919 371.457L257.81 359.505L282.673 342.432L302.565 359.505L318.312 383.408L345.662 404.749L363.895 419.262L379.005 431.119L381.3 432.92L385.231 438.987C388.997 440.417 397.005 443.936 398.908 446.579C400.811 449.222 416.694 449.387 424.397 449.14L462.536 446.579L500 443.275L479.187 449.14L465.51 457.676L450.643 473.9L434.587 487.375L424.397 497.798L407.821 509.749L391.246 528.53L374.67 549.871L364.724 533.652L346.491 509.749L319.14 528.53L297.592 543.042L277.701 569.505L258.638 604.505V587.432L248.693 569.505L266.926 560.969L258.638 543.042L277.701 528.53L258.638 516.579H266.926V497.798L238.747 490.969L231.288 480.725L238.747 468.774L258.638 480.725L283.502 497.798L303.393 480.725L322.456 469.627L346.491 435.481L367.578 429.633L345.662 424.384L318.312 406.457L296.763 389.384L282.673 371.457L276.872 383.408L282.673 404.749L302.565 414.14V424.384L313.339 432.92V457.676L290.133 449.14L276.872 457.676C274.021 456.806 269.886 455.553 265.569 454.262C258.593 452.174 251.141 449.983 247.864 449.14C242.56 447.774 230.736 440.603 225.487 437.188H185.704L149.238 441.457L167.471 432.92L188.191 424.384L208.082 414.14L230.459 383.408L167.471 330.481L155.039 342.432L177.417 359.505V383.408L193.992 404.749H159.183L124.374 389.384L90.3931 406.457L50.6109 414.14L10 419.262L50.6109 398.774L81.2763 371.457L115.257 342.432L142.607 317.676L155.039 297.188L167.471 311.701L177.417 323.652L193.992 297.188L225.487 235.725Z" fill="black"/>
<path d="M381.3 432.92L345.662 424.384L318.312 406.457L296.763 389.384L282.673 371.457L276.872 383.408L282.673 404.749L302.565 414.14V424.384L313.339 432.92V457.676L290.133 449.14L276.872 457.676C269.413 455.4 253.168 450.505 247.864 449.14C242.56 447.774 230.736 440.603 225.487 437.188H185.704L149.238 441.457L167.471 432.92L188.191 424.384L208.082 414.14L230.459 383.408L167.471 330.481L155.039 342.432L177.417 359.505V383.408L193.992 404.749H159.183L124.374 389.384L90.3931 406.457L50.6109 414.14L10 419.262L50.6109 398.774L81.2763 371.457L115.257 342.432L142.607 317.676L155.039 297.188L167.471 311.701L177.417 323.652L193.992 297.188L225.487 235.725L247.864 200.725L261.125 217.798L274.386 230.603L257.81 235.725M381.3 432.92L363.895 419.262L345.662 404.749L318.312 383.408L302.565 359.505L282.673 342.432L257.81 359.505L237.919 371.457L230.459 359.505L237.919 349.262L266.098 342.432V323.652H257.81L276.872 311.701L257.81 297.188L266.098 279.262L247.864 270.725L257.81 252.798V235.725M381.3 432.92L385.231 438.987C388.997 440.417 397.005 443.936 398.908 446.579C400.811 449.222 416.694 449.387 424.397 449.14L462.536 446.579L500 443.275L479.187 449.14L465.51 457.676L450.643 473.9L434.587 487.375L424.397 497.798M257.81 235.725L276.872 270.725L296.763 297.188L318.312 311.701L345.662 330.481L363.895 306.579L373.841 290.359L390.417 311.701L406.993 330.481L423.569 342.432L390.417 330.481L373.841 317.676V335.603L358.923 349.262L345.662 342.432M10.8288 420.969L51.4397 441.457L82.1051 468.774L116.086 497.798L143.436 522.554L155.868 543.042L168.3 528.53L178.245 516.579L194.821 543.042L226.315 604.505L248.693 639.505L260.296 624.14L279.358 607.066M379.642 431.213L368.039 429.505L346.491 435.481L322.456 469.627L303.393 480.725L283.502 497.798L258.638 480.725L238.747 468.774L231.288 480.725L238.747 490.969L266.926 497.798V516.579H258.638L277.701 528.53L258.638 543.042L266.926 560.969L248.693 569.505L258.638 587.432V604.505L277.701 569.505L297.592 543.042L319.14 528.53L346.491 509.749L364.724 533.652L374.67 549.871L391.246 528.53L407.821 509.749L424.397 497.798M424.397 497.798L391.246 509.749L374.67 522.554V504.627L359.751 490.969L346.491 497.798M152.553 441.457L164.156 446.579L178.245 456.823V480.725L155.868 497.798L168.3 509.749L231.288 456.823L243.72 454.262H266.926" stroke="black" stroke-width="5"/>
<path d="M381.3 432.805L367.578 429.518L368.039 429.39L379.005 431.004L381.3 432.805Z" fill="black"/>
<path d="M345.662 342.317L358.923 349.146L373.841 335.488V317.561L390.417 330.366L423.569 342.317L406.993 330.366L390.417 311.585L373.841 290.244L363.895 306.463L345.662 330.366L318.312 311.585L296.763 297.073L276.872 270.61L257.81 235.61V252.683L247.864 270.61L266.098 279.146L257.81 297.073L276.872 311.585L257.81 323.537H266.098V342.317L237.919 349.146L230.459 359.39L237.919 371.341L257.81 359.39L282.673 342.317L302.565 359.39L318.312 383.293L345.662 404.634L363.895 419.146L381.3 432.805L345.662 424.268L318.312 406.341L296.763 389.268L282.673 371.341L276.872 383.293L282.673 404.634L302.565 414.024V424.268L313.339 432.805V457.561L290.133 449.024L276.872 457.561C269.413 455.285 253.168 450.39 247.864 449.024C242.56 447.659 230.736 440.488 225.487 437.073H185.704L149.238 441.341L167.471 432.805L188.191 424.268L208.082 414.024L230.459 383.293L167.471 330.366L155.039 342.317L177.417 359.39V383.293L193.992 404.634H159.183L124.374 389.268L90.3931 406.341L50.6109 414.024L10 419.146L50.6109 398.659L81.2763 371.341L115.257 342.317L142.607 317.561L155.039 297.073L167.471 311.585L177.417 323.537L193.992 297.073L225.487 235.61L247.864 200.61L261.125 217.683L278.786 233.8M10.8288 420.854L51.4397 441.341L82.1051 468.659L116.086 497.683L143.436 522.439L155.868 542.927L168.3 528.415L178.245 516.463L194.821 542.927L226.315 604.39L248.693 639.39L260.296 624.024L279.358 606.951M379.642 431.098L368.039 429.39L346.491 435.366L322.456 469.512L303.393 480.61L283.502 497.683L258.638 480.61L238.747 468.659L231.288 480.61L238.747 490.854L266.926 497.683V516.463H258.638L277.701 528.415L258.638 542.927L266.926 560.854L248.693 569.39L258.638 587.317V604.39L277.701 569.39L297.592 542.927L319.14 528.415L346.491 509.634L364.724 533.537L374.67 549.756L391.246 528.415L407.821 509.634L424.397 497.683L391.246 509.634L374.67 522.439V504.512L359.751 490.854L346.491 497.683M152.553 441.341L164.156 446.463L178.245 456.707V480.61L155.868 497.683L168.3 509.634L231.288 456.707L243.72 454.146H266.926" stroke="black" stroke-width="5"/>
</svg>
