<svg width="850" height="200" viewBox="0 0 850 200" fill="none" xmlns="http://www.w3.org/2000/svg">
<g filter="url(#filter0_d_115_7)">
<g filter="url(#filter1_d_115_7)">
<path d="M107.521 41.1355L114.844 30.0366L119.184 35.4507L123.523 39.5112L118.099 41.1355V46.5496L114.844 52.2344L120.811 54.9414L118.099 60.6262L124.337 65.2282L118.099 69.0181H120.811V74.9736L111.589 77.1392L109.148 80.3877L111.589 84.1776L118.099 80.3877L126.236 74.9736L132.745 80.3877L137.899 87.9674L146.85 94.7351L152.817 99.3371L157.761 103.097L158.513 103.668L159.799 105.592C161.031 106.046 163.652 107.162 164.275 108C164.898 108.838 170.096 108.89 172.617 108.812L185.098 108L197.359 106.952L190.547 108.812L186.071 111.519L181.206 116.664L175.952 120.937L172.617 124.242L167.192 128.032L161.767 133.987L156.343 140.755L153.088 135.612L147.121 128.032L138.17 133.987L131.118 138.589L124.608 146.981L118.37 158.08V152.666L115.115 146.981L121.082 144.274L118.37 138.589L124.608 133.987L118.37 130.197H121.082V124.242L111.86 122.076L109.419 118.828L111.86 115.038L118.37 118.828L126.507 124.242L133.017 118.828L139.255 115.309L147.121 104.48L154.022 102.626L146.85 100.961L137.899 95.2765L130.847 89.8624L126.236 84.1776L124.337 87.9674L126.236 94.7351L132.745 97.7128V100.961L136.271 103.668V111.519L128.677 108.812L124.337 111.519C123.404 111.243 122.051 110.846 120.638 110.436C118.355 109.774 115.916 109.079 114.844 108.812C113.108 108.379 109.239 106.105 107.521 105.022H94.5015L82.5672 106.375L88.5344 103.668L95.3152 100.961L101.825 97.7128L109.148 87.9674L88.5344 71.1837L84.4659 74.9736L91.7892 80.3877V87.9674L97.2138 94.7351H85.822L74.4302 89.8624L63.3096 95.2765L50.2904 97.7128L37 99.3371L50.2904 92.8401L60.3261 84.1776L71.4467 74.9736L80.3974 67.1232L84.4659 60.6262L88.5344 65.2282L91.7892 69.0181L97.2138 60.6262L107.521 41.1355Z" fill="#C1A84F"/>
<path d="M158.513 103.668L146.85 100.961L137.899 95.2765L130.847 89.8624L126.236 84.1776L124.337 87.9674L126.236 94.7351L132.745 97.7128V100.961L136.271 103.668V111.519L128.677 108.812L124.337 111.519C121.896 110.797 116.58 109.245 114.844 108.812C113.108 108.379 109.239 106.105 107.521 105.022H94.5015L82.5672 106.375L88.5344 103.668L95.3152 100.961L101.825 97.7128L109.148 87.9674L88.5344 71.1837L84.4659 74.9736L91.7892 80.3877V87.9674L97.2138 94.7351H85.822L74.4302 89.8624L63.3096 95.2765L50.2904 97.7128L37 99.3371L50.2904 92.8401L60.3261 84.1776L71.4466 74.9736L80.3974 67.1232L84.4659 60.6262L88.5344 65.2282L91.7892 69.0181L97.2138 60.6262L107.521 41.1355L114.844 30.0366L119.184 35.4507L123.523 39.5112L118.099 41.1355M158.513 103.668L152.817 99.3371L146.85 94.7351L137.899 87.9674L132.745 80.3877L126.236 74.9736L118.099 80.3877L111.589 84.1776L109.148 80.3877L111.589 77.1392L120.811 74.9736V69.0181H118.099L124.337 65.2282L118.099 60.6262L120.811 54.9414L114.844 52.2344L118.099 46.5496V41.1355M158.513 103.668L159.799 105.592C161.031 106.046 163.652 107.162 164.275 108C164.898 108.838 170.096 108.89 172.617 108.812L185.098 108L197.359 106.952L190.547 108.812L186.071 111.519L181.206 116.664L175.952 120.937L172.617 124.242M118.099 41.1355L124.337 52.2344L130.847 60.6262L137.899 65.2282L146.85 71.1837L152.817 63.604L156.071 58.4606L161.496 65.2282L166.921 71.1837L172.345 74.9736L161.496 71.1837L156.071 67.1232V72.808L151.189 77.1392L146.85 74.9736M37.2712 99.8785L50.5617 106.375L60.5973 115.038L71.7179 124.242L80.6686 132.092L84.7371 138.589L88.8056 133.987L92.0604 130.197L97.4851 138.589L107.792 158.08L115.115 169.179L118.913 164.306L125.151 158.892M157.97 103.127L154.173 102.586L147.121 104.48L139.255 115.309L133.017 118.828L126.507 124.242L118.37 118.828L111.86 115.038L109.419 118.828L111.86 122.076L121.082 124.242V130.197H118.37L124.608 133.987L118.37 138.589L121.082 144.274L115.115 146.981L118.37 152.666V158.08L124.608 146.981L131.118 138.589L138.17 133.987L147.121 128.032L153.088 135.612L156.343 140.755L161.767 133.987L167.192 128.032L172.617 124.242M172.617 124.242L161.767 128.032L156.343 132.092V126.408L151.461 122.076L147.121 124.242M83.6522 106.375L87.4494 108L92.0604 111.248V118.828L84.7371 124.242L88.8056 128.032L109.419 111.248L113.488 110.436H121.082" stroke="#C1A84F" stroke-width="1.5"/>
<path d="M158.513 103.632L154.022 102.589L154.173 102.549L157.761 103.061L158.513 103.632Z" fill="#C1A84F"/>
<path d="M146.85 74.937L151.189 77.1027L156.071 72.7714V67.0866L161.496 71.1472L172.345 74.937L166.921 71.1472L161.496 65.1917L156.071 58.424L152.817 63.5674L146.85 71.1472L137.899 65.1917L130.847 60.5897L124.337 52.1978L118.099 41.0989V46.513L114.844 52.1978L120.811 54.9049L118.099 60.5897L124.337 65.1917L118.099 68.9815H120.811V74.937L111.589 77.1027L109.148 80.3511L111.589 84.141L118.099 80.3511L126.236 74.937L132.745 80.3511L137.899 87.9309L146.85 94.6985L152.817 99.3005L158.513 103.632L146.85 100.925L137.899 95.2399L130.847 89.8258L126.236 84.141L124.337 87.9309L126.236 94.6985L132.745 97.6763V100.925L136.271 103.632V111.482L128.677 108.775L124.337 111.482C121.896 110.76 116.58 109.208 114.844 108.775C113.108 108.342 109.239 106.068 107.521 104.985H94.5015L82.5672 106.339L88.5344 103.632L95.3152 100.925L101.825 97.6763L109.148 87.9309L88.5344 71.1472L84.4659 74.937L91.7892 80.3511V87.9309L97.2138 94.6985H85.822L74.4302 89.8258L63.3096 95.2399L50.2904 97.6763L37 99.3005L50.2904 92.8036L60.3261 84.141L71.4466 74.937L80.3974 67.0866L84.4659 60.5897L88.5344 65.1917L91.7892 68.9815L97.2138 60.5897L107.521 41.0989L114.844 30L119.184 35.4141L124.964 40.525M37.2712 99.8419L50.5617 106.339L60.5973 115.001L71.7179 124.205L80.6686 132.056L84.7371 138.553L88.8056 133.951L92.0604 130.161L97.4851 138.553L107.792 158.043L115.115 169.142L118.913 164.27L125.151 158.856M157.97 103.09L154.173 102.549L147.121 104.444L139.255 115.272L133.017 118.791L126.507 124.205L118.37 118.791L111.86 115.001L109.419 118.791L111.86 122.04L121.082 124.205V130.161H118.37L124.608 133.951L118.37 138.553L121.082 144.238L115.115 146.945L118.37 152.629V158.043L124.608 146.945L131.118 138.553L138.17 133.951L147.121 127.995L153.088 135.575L156.343 140.718L161.767 133.951L167.192 127.995L172.617 124.205L161.767 127.995L156.343 132.056V126.371L151.461 122.04L147.121 124.205M83.6522 106.339L87.4494 107.963L92.0604 111.212V118.791L84.7371 124.205L88.8056 127.995L109.419 111.212L113.488 110.399H121.082" stroke="#C1A84F" stroke-width="1.5"/>
</g>
<path d="M262.465 117.675C261.775 117.982 261.238 117.828 260.855 117.215C260.548 116.602 260.242 115.988 259.935 115.375L240.96 70.755C240.807 70.525 240.692 70.18 240.615 69.72C239.925 67.88 238.775 66.8067 237.165 66.5C236.092 66.27 234.482 66.6917 232.335 67.765C232.105 67.9183 231.415 68.3017 230.265 68.915L230.15 70.755C230.227 70.755 230.687 70.5633 231.53 70.18C232.297 69.8733 232.872 70.18 233.255 71.1C233.408 71.56 233.37 71.9817 233.14 72.365L216.005 112.96C215.085 115.03 213.973 116.448 212.67 117.215C211.367 117.905 209.527 118.25 207.15 118.25V120.78L225.895 120.895V118.365H224.17C220.797 118.365 219.11 117.33 219.11 115.26C219.187 114.647 219.417 113.88 219.8 112.96L224.055 102.495L245.675 102.725L252.46 119.515C253.15 120.818 254.3 121.623 255.91 121.93C256.983 122.16 258.862 121.662 261.545 120.435C262.542 119.975 263.385 119.553 264.075 119.17V116.985L262.465 117.675ZM225.32 99.16L234.29 77.54C234.443 77.1567 234.673 76.4667 234.98 75.47C235.363 77.1567 236.092 79.3417 237.165 82.025L244.18 99.275L225.32 99.16ZM314.06 75.355C309.996 71.215 303.978 68.6083 296.005 67.535C294.395 67.305 292.785 66.73 291.175 65.81C289.795 64.89 287.878 63.05 285.425 60.29C284.811 59.2933 284.735 58.5267 285.195 57.99C285.195 57.9133 285.846 57.4533 287.15 56.61L285.54 55.23C285.31 55.3067 284.466 55.69 283.01 56.38C280.786 57.4533 279.176 58.565 278.18 59.715C277.566 60.5583 277.26 61.4783 277.26 62.475C277.26 63.5483 277.605 64.6983 278.295 65.925C278.601 66.4617 279.368 67.1133 280.595 67.88C281.898 68.6467 282.895 69.0683 283.585 69.145C285.271 69.6817 287.61 70.18 290.6 70.64C294.586 71.1767 296.925 71.5217 297.615 71.675C298.841 72.0583 300.106 72.48 301.41 72.94C303.02 73.4767 304.4 74.32 305.55 75.47H305.665C309.575 79.6867 311.491 85.8967 311.415 94.1C311.415 101.077 309.996 106.635 307.16 110.775C303.863 115.682 298.88 118.097 292.21 118.02C288.223 118.02 285.616 117.483 284.39 116.41C283.24 115.26 282.665 112.768 282.665 108.935L282.78 90.765C282.78 86.4717 282.895 83.7883 283.125 82.715C283.738 80.1083 285.195 78 287.495 76.39L285.425 74.665C282.281 75.7383 279.713 77.8083 277.72 80.875C276.723 82.4083 275.688 85.3983 274.615 89.845V92.835L274.5 111.695C274.5 114.455 273.81 116.257 272.43 117.1C271.51 117.637 269.478 117.982 266.335 118.135V120.665L293.82 120.895C301.87 120.972 308.386 118.595 313.37 113.765C318.43 108.858 320.998 102.38 321.075 94.33C321.075 86.8933 318.736 80.5683 314.06 75.355ZM370.88 73.17C369.654 70.7933 368.925 69.4517 368.695 69.145C367.545 67.6117 366.28 66.845 364.9 66.845C363.904 66.845 362.792 67.19 361.565 67.88C359.955 68.8 358.115 69.7583 356.045 70.755V72.71C357.195 72.1733 358.192 71.905 359.035 71.905C360.492 71.905 361.872 73.17 363.175 75.7C366.625 82.2167 368.35 87.6217 368.35 91.915C368.35 99.735 365.705 105.83 360.415 110.2C359.495 110.967 358.614 111.35 357.77 111.35C356.697 111.35 355.854 110.737 355.24 109.51C352.404 103.99 348.379 94.9817 343.165 82.485C341.019 77.425 338.795 72.5567 336.495 67.88C335.652 67.1133 334.502 66.73 333.045 66.73C331.512 66.73 330.132 67.075 328.905 67.765C327.295 68.685 325.455 69.6433 323.385 70.64V72.595C325.072 71.8283 326.337 71.5983 327.18 71.905C328.024 72.2117 328.867 73.3233 329.71 75.24L335.23 87.43L348.11 117.56C349.567 120.703 350.755 122.275 351.675 122.275C355.049 122.275 359.15 118.902 363.98 112.155C367.737 107.018 370.535 102.15 372.375 97.55C373.602 94.4833 374.215 91.2633 374.215 87.89C374.215 82.4467 373.104 77.54 370.88 73.17ZM419.86 104.105C419.707 106.788 418.71 109.433 416.87 112.04C415.03 114.647 412.884 116.333 410.43 117.1C408.36 117.713 405.332 118.02 401.345 118.02C396.209 117.943 393.41 116.065 392.95 112.385L393.065 94.675H396.975C399.275 94.675 400.885 95.25 401.805 96.4C402.419 97.2433 402.917 98.8917 403.3 101.345H405.37L405.485 86.05H403.415C403.185 90.19 401.039 92.26 396.975 92.26H393.065V83.29C393.065 78.9967 394.177 75.3933 396.4 72.48C398.854 69.26 402.189 67.65 406.405 67.65C408.475 67.65 410.392 68.455 412.155 70.065C413.919 71.675 414.839 73.515 414.915 75.585C414.915 77.195 414.455 78.46 413.535 79.38L415.72 79.955C418.327 77.3483 419.669 75.2783 419.745 73.745C419.822 72.135 418.94 70.525 417.1 68.915C416.027 68.225 414.992 67.4967 413.995 66.73C411.389 65.2733 408.705 64.545 405.945 64.545C400.962 64.4683 396.707 65.6567 393.18 68.11V67.65C392.414 65.58 391.072 64.4683 389.155 64.315C388.082 64.2383 386.319 64.7367 383.865 65.81C382.792 66.3467 382.025 66.73 381.565 66.96V69.03C381.719 68.8767 382.179 68.6467 382.945 68.34C384.095 67.88 384.709 68.1867 384.785 69.26C384.862 69.95 384.824 84.0567 384.67 111.58C384.67 114.417 383.98 116.257 382.6 117.1C381.68 117.637 379.649 117.982 376.505 118.135V120.55L421.01 120.895L422.16 104.105H419.86ZM480.12 71.33C481.27 70.64 483.148 70.2567 485.755 70.18V67.65L464.25 67.42V69.95C466.856 70.1033 468.696 70.6017 469.77 71.445C470.843 72.2883 471.38 73.975 471.38 76.505L471.495 112.27C471.495 114.11 470.651 115.03 468.965 115.03C468.045 115.03 466.933 114.647 465.63 113.88C462.64 112.117 459.688 109.203 456.775 105.14C456.238 104.373 454.015 101 450.105 95.02C444.431 86.28 441.326 80.0317 440.79 76.275V72.94C440.943 69.03 439.563 66.9217 436.65 66.615C435.576 66.4617 433.966 66.8833 431.82 67.88C430.976 68.2633 430.248 68.6467 429.635 69.03V70.87C429.788 70.7933 430.248 70.6017 431.015 70.295C432.088 69.835 432.663 70.1033 432.74 71.1C432.74 71.6367 432.74 71.905 432.74 71.905V73.975C432.816 74.5117 432.855 75.125 432.855 75.815L432.625 112.04C432.625 114.723 431.935 116.525 430.555 117.445C429.635 118.058 427.603 118.403 424.46 118.48V121.01H448.61V118.71C445.543 118.48 443.55 118.097 442.63 117.56C441.25 116.717 440.56 114.877 440.56 112.04V108.475L440.675 95.94C442.438 99.5433 446.041 104.182 451.485 109.855C455.395 113.842 459.611 116.832 464.135 118.825C467.355 120.205 470.076 120.895 472.3 120.895C477.206 120.895 479.66 120.895 479.66 120.895C482.42 120.895 484.221 120.933 485.065 121.01V118.48C481.998 118.327 480.311 118.173 480.005 118.02C478.855 117.407 478.28 115.643 478.28 112.73L478.51 76.62C478.51 73.7067 479.046 71.9433 480.12 71.33ZM531.264 114.915C529.347 117.368 525.936 118.595 521.029 118.595C514.896 118.518 510.181 115.758 506.884 110.315C504.277 105.792 502.974 100.233 502.974 93.64C503.051 82.4467 506.002 75.3933 511.829 72.48L514.129 71.33L529.194 71.215L529.309 67.305L513.094 67.19V67.075C513.017 67.075 512.941 67.1133 512.864 67.19L489.519 66.96L488.024 80.185H490.439C491.436 76.8883 492.317 74.78 493.084 73.86C494.234 72.4033 496.189 71.5217 498.949 71.215L505.734 71.33C497.224 76.5433 492.931 84.5167 492.854 95.25C492.777 102.84 494.617 109.012 498.374 113.765C502.514 118.978 508.264 121.7 515.624 121.93C524.287 122.237 530.076 120.052 532.989 115.375L531.264 114.915ZM579.464 70.41C580.614 69.72 582.493 69.3367 585.099 69.26V66.73L563.594 66.615V69.145C566.278 69.2983 568.079 69.72 568.999 70.41C570.149 71.33 570.724 73.0933 570.724 75.7L570.494 107.67C568.348 113.573 564.016 116.487 557.499 116.41C548.069 116.333 543.354 112.27 543.354 104.22C543.354 102.303 543.623 100.425 544.159 98.585H544.044L548.644 75.24C549.181 73.4 549.449 71.8283 549.449 70.525C549.449 69.6817 549.296 68.9917 548.989 68.455C548.683 67.9183 548.299 67.3817 547.839 66.845C547.456 66.3083 546.843 66.0017 545.999 65.925C544.926 65.7717 543.278 66.2317 541.054 67.305C540.518 67.535 539.828 67.88 538.984 68.34V70.18C539.214 70.0267 539.636 69.835 540.249 69.605C541.323 69.145 541.898 69.4517 541.974 70.525C541.898 70.985 541.591 72.5567 541.054 75.24C540.901 76.0067 539.023 84.4017 535.419 100.425L535.534 100.54C535.381 101.537 535.304 102.495 535.304 103.415C535.304 107.018 536.378 110.238 538.524 113.075C542.358 118.212 547.686 120.818 554.509 120.895C561.103 120.895 566.316 119.285 570.149 116.065V117.675H570.264V120.895H584.754V118.48C581.994 118.327 580.269 118.02 579.579 117.56C578.276 116.717 577.624 114.838 577.624 111.925L577.854 75.7C577.854 72.7867 578.391 71.0233 579.464 70.41ZM639.279 113.765L638.014 114.8C637.247 115.413 636.519 115.26 635.829 114.34C635.675 114.033 631.497 109.242 623.294 99.965C631.114 97.0517 635.024 91.4933 635.024 83.29C635.024 74.3967 630.577 68.7617 621.684 66.385C619.92 65.925 618.272 65.695 616.739 65.695C611.142 65.695 606.849 67.4583 603.859 70.985V70.755C603.552 68.0717 602.172 66.5767 599.719 66.27C598.569 66.1167 596.92 66.5383 594.774 67.535C593.93 67.9183 593.24 68.3017 592.704 68.685V70.525L593.969 69.95C594.812 69.5667 595.31 69.605 595.464 70.065C595.617 70.525 595.732 71.0233 595.809 71.56L595.694 73.63C595.77 74.1667 595.809 74.78 595.809 75.47L595.579 111.695C595.579 114.455 594.889 116.257 593.509 117.1C592.512 117.713 590.48 118.058 587.414 118.135V120.665L611.679 120.78V118.25C608.535 118.097 606.504 117.752 605.584 117.215C604.28 116.448 603.629 114.608 603.629 111.695L603.859 81.335C603.859 75.9683 606.274 72.25 611.104 70.18C612.56 69.5667 614.094 69.26 615.704 69.26C617.85 69.26 619.92 69.8733 621.914 71.1C626.054 73.63 627.932 78.0383 627.549 84.325C627.395 87.1617 626.744 89.7683 625.594 92.145C624.137 95.0583 622.259 96.8217 619.959 97.435C619.039 97.665 618.234 97.78 617.544 97.78C615.934 97.78 613.595 96.8983 610.529 95.135L609.149 96.285L628.009 117.905C629.235 119.822 630.807 120.742 632.724 120.665C633.72 120.588 635.407 119.592 637.784 117.675C638.704 116.908 639.394 116.295 639.854 115.835L639.279 113.765ZM697.766 71.33C698.916 70.64 700.794 70.2567 703.401 70.18V67.65L681.896 67.42V69.95C684.503 70.1033 686.343 70.6017 687.416 71.445C688.489 72.2883 689.026 73.975 689.026 76.505L689.141 112.27C689.141 114.11 688.298 115.03 686.611 115.03C685.691 115.03 684.579 114.647 683.276 113.88C680.286 112.117 677.334 109.203 674.421 105.14C673.884 104.373 671.661 101 667.751 95.02C662.078 86.28 658.973 80.0317 658.436 76.275V72.94C658.589 69.03 657.209 66.9217 654.296 66.615C653.223 66.4617 651.613 66.8833 649.466 67.88C648.623 68.2633 647.894 68.6467 647.281 69.03V70.87C647.434 70.7933 647.894 70.6017 648.661 70.295C649.734 69.835 650.309 70.1033 650.386 71.1C650.386 71.6367 650.386 71.905 650.386 71.905V73.975C650.463 74.5117 650.501 75.125 650.501 75.815L650.271 112.04C650.271 114.723 649.581 116.525 648.201 117.445C647.281 118.058 645.249 118.403 642.106 118.48V121.01H666.256V118.71C663.189 118.48 661.196 118.097 660.276 117.56C658.896 116.717 658.206 114.877 658.206 112.04V108.475L658.321 95.94C660.084 99.5433 663.688 104.182 669.131 109.855C673.041 113.842 677.258 116.832 681.781 118.825C685.001 120.205 687.723 120.895 689.946 120.895C694.853 120.895 697.306 120.895 697.306 120.895C700.066 120.895 701.868 120.933 702.711 121.01V118.48C699.644 118.327 697.958 118.173 697.651 118.02C696.501 117.407 695.926 115.643 695.926 112.73L696.156 76.62C696.156 73.7067 696.693 71.9433 697.766 71.33ZM760.986 117.675C760.296 117.982 759.759 117.828 759.376 117.215C759.069 116.602 758.762 115.988 758.456 115.375L739.481 70.755C739.327 70.525 739.212 70.18 739.136 69.72C738.446 67.88 737.296 66.8067 735.686 66.5C734.612 66.27 733.002 66.6917 730.856 67.765C730.626 67.9183 729.936 68.3017 728.786 68.915L728.671 70.755C728.747 70.755 729.207 70.5633 730.051 70.18C730.817 69.8733 731.392 70.18 731.776 71.1C731.929 71.56 731.891 71.9817 731.661 72.365L714.526 112.96C713.606 115.03 712.494 116.448 711.191 117.215C709.887 117.905 708.047 118.25 705.671 118.25V120.78L724.416 120.895V118.365H722.691C719.317 118.365 717.631 117.33 717.631 115.26C717.707 114.647 717.937 113.88 718.321 112.96L722.576 102.495L744.196 102.725L750.981 119.515C751.671 120.818 752.821 121.623 754.431 121.93C755.504 122.16 757.382 121.662 760.066 120.435C761.062 119.975 761.906 119.553 762.596 119.17V116.985L760.986 117.675ZM723.841 99.16L732.811 77.54C732.964 77.1567 733.194 76.4667 733.501 75.47C733.884 77.1567 734.612 79.3417 735.686 82.025L742.701 99.275L723.841 99.16ZM808.21 104.105C807.98 106.942 806.983 109.625 805.22 112.155C803.533 114.685 801.387 116.333 798.78 117.1C796.71 117.713 793.682 118.02 789.695 118.02C787.855 118.02 783.753 117.943 777.39 117.79C779.92 116.64 781.185 114.302 781.185 110.775L781.415 72.48C781.568 68.4167 780.188 66.27 777.275 66.04C776.278 65.9633 774.668 66.4233 772.445 67.42C771.908 67.65 771.18 67.995 770.26 68.455V70.295C770.413 70.2183 770.835 70.065 771.525 69.835C771.908 69.6817 772.215 69.605 772.445 69.605C772.982 69.605 773.25 69.95 773.25 70.64C773.25 70.41 773.212 73.86 773.135 80.99C773.135 90.19 773.097 100.387 773.02 111.58C773.02 114.417 772.368 116.218 771.065 116.985C770.145 117.522 768.113 117.867 764.97 118.02L764.855 118.135L764.97 120.895H809.475L810.625 104.105H808.21Z" fill="#C1A84F"/>
</g>
<defs>
<filter id="filter0_d_115_7" x="30.6706" y="28.7274" width="781.954" height="149.737" filterUnits="userSpaceOnUse" color-interpolation-filters="sRGB">
<feFlood flood-opacity="0" result="BackgroundImageFix"/>
<feColorMatrix in="SourceAlpha" type="matrix" values="0 0 0 0 0 0 0 0 0 0 0 0 0 0 0 0 0 0 127 0" result="hardAlpha"/>
<feOffset dx="-2" dy="4"/>
<feGaussianBlur stdDeviation="2"/>
<feComposite in2="hardAlpha" operator="out"/>
<feColorMatrix type="matrix" values="0 0 0 0 0 0 0 0 0 0 0 0 0 0 0 0 0 0 0.25 0"/>
<feBlend mode="normal" in2="BackgroundImageFix" result="effect1_dropShadow_115_7"/>
<feBlend mode="normal" in="SourceGraphic" in2="effect1_dropShadow_115_7" result="shape"/>
</filter>
<filter id="filter1_d_115_7" x="30.6706" y="28.7274" width="168.886" height="149.737" filterUnits="userSpaceOnUse" color-interpolation-filters="sRGB">
<feFlood flood-opacity="0" result="BackgroundImageFix"/>
<feColorMatrix in="SourceAlpha" type="matrix" values="0 0 0 0 0 0 0 0 0 0 0 0 0 0 0 0 0 0 127 0" result="hardAlpha"/>
<feOffset dx="-2" dy="4"/>
<feGaussianBlur stdDeviation="2"/>
<feComposite in2="hardAlpha" operator="out"/>
<feColorMatrix type="matrix" values="0 0 0 0 0 0 0 0 0 0 0 0 0 0 0 0 0 0 0.25 0"/>
<feBlend mode="normal" in2="BackgroundImageFix" result="effect1_dropShadow_115_7"/>
<feBlend mode="normal" in="SourceGraphic" in2="effect1_dropShadow_115_7" result="shape"/>
</filter>
</defs>
</svg>
