<svg width="100" height="100" viewBox="0 0 100 100" fill="none" xmlns="http://www.w3.org/2000/svg">
<path d="M59.2458 40.8085C53.6751 51.2037 41.427 54.7088 31.8889 48.6374C22.3509 42.566 19.1348 29.2173 24.7056 18.8221C30.2764 8.42694 42.5245 4.92183 52.0625 10.9932C61.6005 17.0646 64.8166 30.4134 59.2458 40.8085Z" fill="#AE2029"/>
<path d="M88.605 59.497C83.0343 69.8921 70.7862 73.3972 61.2482 67.3259C51.7101 61.2545 48.494 47.9057 54.0648 37.5106C59.6356 27.1154 71.8837 23.6103 81.4217 29.6817C90.9597 35.753 94.1758 49.1018 88.605 59.497Z" fill="#AE2029"/>
<path d="M34.1188 78.58C34.4498 79.5357 35.3417 80.0953 36.2667 79.9304C43.1992 78.6946 71.0734 73.449 81.691 67.2124C93.8595 60.065 21.8002 13.4387 21.9364 29.1759C22.055 42.8947 31.6576 71.4747 34.1188 78.58Z" fill="#AE2029"/>
<path d="M25.792 60.675C24.616 60.6226 23.692 60.0864 23.02 59.0663C22.348 58.02 22.012 56.5553 22.012 54.672C22.012 53.9134 22.156 52.671 22.444 50.9446C22.732 49.2183 22.876 47.9889 22.876 47.2565V47.1781C22.852 46.6288 22.696 46.1972 22.408 45.8833C22.12 45.5694 21.784 45.4125 21.4 45.4125C21.04 45.4125 20.716 45.5694 20.428 45.8833C20.14 46.1972 19.984 46.6288 19.96 47.1781V47.2565C19.96 47.9889 20.104 49.2183 20.392 50.9446C20.68 52.671 20.824 53.9134 20.824 54.672C20.824 56.5553 20.488 58.02 19.816 59.0663C19.144 60.0864 18.22 60.6226 17.044 60.675H15.532C13.852 60.6488 12.616 60.1387 11.824 59.1448C11.056 58.1247 10.672 56.6337 10.672 54.672C10.672 53.9134 10.816 52.671 11.104 50.9446C11.392 49.2183 11.536 47.9889 11.536 47.2565C11.536 45.9487 11.296 44.7193 10.816 43.5684C10.36 42.4175 9.7 41.1097 8.836 39.6449C8.212 38.5725 7.744 37.6962 7.432 37.0162C7.144 36.3361 7 35.6822 7 35.0544C7 34.4267 7.18 33.9558 7.54 33.642C7.9 33.3281 8.476 33.1581 9.268 33.1319H10.204C12.748 33.1319 14.02 33.812 14.02 35.1721C14.02 35.5122 13.96 35.9176 13.84 36.3884C13.744 36.8592 13.684 37.16 13.66 37.2908C13.468 38.1278 13.312 38.8864 13.192 39.5665C13.072 40.2204 13.012 40.9397 13.012 41.7244C13.012 42.7445 13.168 43.9869 13.48 45.4517C13.792 46.9165 14.176 48.1851 14.632 49.2575C15.112 50.33 15.604 50.8793 16.108 50.9054C16.588 50.8793 17.008 50.343 17.368 49.2968C17.728 48.2505 18.004 47.0081 18.196 45.5694C18.388 44.1047 18.484 42.823 18.484 41.7244C18.484 40.9397 18.424 40.2204 18.304 39.5665C18.184 38.8864 18.028 38.1278 17.836 37.2908C17.812 37.16 17.74 36.8592 17.62 36.3884C17.524 35.9176 17.476 35.5122 17.476 35.1721C17.476 34.3874 17.704 33.8512 18.16 33.5635C18.64 33.2758 19.252 33.1319 19.996 33.1319H22.84C23.584 33.1319 24.184 33.2758 24.64 33.5635C25.12 33.8512 25.36 34.3874 25.36 35.1721C25.36 35.5122 25.3 35.9176 25.18 36.3884C25.084 36.8592 25.024 37.16 25 37.2908C24.808 38.1278 24.652 38.8864 24.532 39.5665C24.412 40.2204 24.352 40.9397 24.352 41.7244C24.352 42.823 24.448 44.1047 24.64 45.5694C24.832 47.0081 25.108 48.2505 25.468 49.2968C25.828 50.343 26.248 50.8793 26.728 50.9054C27.232 50.8793 27.712 50.33 28.168 49.2575C28.648 48.1851 29.044 46.9165 29.356 45.4517C29.668 43.9869 29.824 42.7445 29.824 41.7244C29.824 40.9397 29.764 40.2204 29.644 39.5665C29.524 38.8864 29.368 38.1278 29.176 37.2908C29.152 37.16 29.08 36.8592 28.96 36.3884C28.864 35.9176 28.816 35.5122 28.816 35.1721C28.816 33.812 30.088 33.1319 32.632 33.1319H33.568C34.36 33.1581 34.936 33.3281 35.296 33.642C35.656 33.9558 35.836 34.4267 35.836 35.0544C35.836 35.6822 35.68 36.3361 35.368 37.0162C35.08 37.6962 34.624 38.5725 34 39.6449C33.136 41.1097 32.464 42.4175 31.984 43.5684C31.528 44.7193 31.3 45.9487 31.3 47.2565C31.3 47.9889 31.444 49.2183 31.732 50.9446C32.02 52.671 32.164 53.9134 32.164 54.672C32.164 56.6337 31.768 58.1247 30.976 59.1448C30.208 60.1387 28.984 60.6488 27.304 60.675H25.792Z" fill="#DC9792"/>
<path d="M46.1252 60.675C44.7092 60.6488 43.7012 60.348 43.1012 59.7725C42.5252 59.1709 42.2372 58.2947 42.2372 57.1438C42.2372 56.4899 42.3452 55.7706 42.5612 54.9859C42.7772 54.2012 43.1132 53.168 43.5692 51.8863C44.1932 50.1338 44.6732 48.5775 45.0092 47.2173C45.3692 45.831 45.5492 44.4447 45.5492 43.0584C45.5492 42.0121 45.4052 41.0574 45.1172 40.1942C44.8292 39.331 44.4332 38.3502 43.9292 37.2516C43.6412 36.6761 43.4252 36.2184 43.2812 35.8784C43.1612 35.5383 43.1012 35.2244 43.1012 34.9367C43.1012 34.309 43.3172 33.8512 43.7492 33.5635C44.2052 33.2758 44.9972 33.1319 46.1252 33.1319H46.9532C48.0812 33.1319 48.8612 33.2758 49.2932 33.5635C49.7252 33.8512 49.9412 34.309 49.9412 34.9367C49.9412 35.2244 49.8692 35.5383 49.7252 35.8784C49.6052 36.1922 49.4012 36.6631 49.1132 37.2908C48.6332 38.2848 48.2492 39.2003 47.9612 40.0373C47.6732 40.8481 47.5172 41.7505 47.4932 42.7445C48.6452 40.495 50.0492 39.3703 51.7052 39.3703C53.0012 39.3703 54.1172 39.998 55.0532 41.2536C56.0132 42.5091 56.7332 44.1177 57.2132 46.0795C57.6932 48.0412 57.9332 50.0553 57.9332 52.1217C57.9332 54.6066 57.4292 56.6599 56.4212 58.2816C55.4132 59.8772 53.8412 60.675 51.7052 60.675H46.1252ZM48.5732 49.336C48.5732 50.7485 48.8492 51.9255 49.4012 52.8672C49.9532 53.7827 50.7932 54.2404 51.9212 54.2404C53.0252 54.2404 53.8532 53.7827 54.4052 52.8672C54.9572 51.9255 55.2332 50.7485 55.2332 49.336C55.2332 47.662 54.9332 46.158 54.3332 44.824C53.7572 43.49 52.9532 42.823 51.9212 42.823C50.8652 42.823 50.0372 43.49 49.4372 44.824C48.8612 46.158 48.5732 47.662 48.5732 49.336Z" fill="#D5B500"/>
<path d="M40.7446 43.7297C41.7286 43.7297 42.4126 43.8474 42.7966 44.0829C43.2046 44.2921 43.4086 44.6452 43.4086 45.1422C43.4086 45.3515 43.3366 45.613 43.1926 45.9269C43.0726 46.2408 42.9166 46.5677 42.7246 46.9078C42.2926 47.7448 41.9566 48.5033 41.7166 49.1834C41.4766 49.8635 41.3566 50.609 41.3566 51.4198C41.3566 52.4922 41.5246 53.5385 41.8606 54.5586C42.1966 55.5787 42.6886 56.8212 43.3366 58.286C43.7686 59.2276 44.0926 60.0123 44.3086 60.6401C44.5486 61.2417 44.6686 61.791 44.6686 62.288C44.6686 63.1773 44.3686 63.8574 43.7686 64.3282C43.1686 64.799 42.1606 65.0344 40.7446 65.0344H39.9886C39.1726 65.0344 38.5726 64.9429 38.1886 64.7598C37.8286 64.5505 37.5886 64.2366 37.4686 63.8181C37.3486 63.2165 37.0726 62.9157 36.6406 62.9157C36.3286 62.9157 35.7406 63.1511 34.8766 63.6219C34.0846 64.0666 33.3406 64.4197 32.6446 64.6813C31.9726 64.9167 31.2526 65.0344 30.4846 65.0344C29.0686 65.0344 28.0606 64.799 27.4606 64.3282C26.8606 63.8574 26.5606 63.1773 26.5606 62.288C26.5606 61.791 26.6686 61.2417 26.8846 60.6401C27.1246 60.0123 27.4606 59.2276 27.8926 58.286C28.5406 56.8212 29.0326 55.5787 29.3686 54.5586C29.7046 53.5385 29.8726 52.4922 29.8726 51.4198C29.8726 50.609 29.7526 49.8635 29.5126 49.1834C29.2726 48.5033 28.9366 47.7448 28.5046 46.9078C28.3126 46.5677 28.1446 46.2408 28.0006 45.9269C27.8806 45.613 27.8206 45.3515 27.8206 45.1422C27.8206 44.6452 28.0126 44.2921 28.3966 44.0829C28.8046 43.8474 29.5126 43.7297 30.5206 43.7297C32.0566 43.7297 33.1366 43.9651 33.7606 44.436C34.3846 44.8806 34.6966 45.5607 34.6966 46.4762C34.6966 46.9993 34.5886 47.5094 34.3726 48.0064C34.1566 48.4772 33.8206 49.0657 33.3646 49.7719C32.7886 50.6874 32.3446 51.5245 32.0326 52.283C31.7206 53.0154 31.5646 53.8524 31.5646 54.794C31.5646 55.6834 31.7566 56.4812 32.1406 57.1874C32.5246 57.8936 33.0166 58.4429 33.6166 58.8353C34.2406 59.2015 34.8886 59.3846 35.5606 59.3846C36.2806 59.3846 36.8806 59.2145 37.3606 58.8745C37.8646 58.5345 38.2606 57.8936 38.5486 56.952C39.1246 54.8333 39.4126 52.9892 39.4126 51.4198C39.4126 50.609 39.2926 49.8635 39.0526 49.1834C38.8126 48.5033 38.4766 47.7448 38.0446 46.9078C37.8526 46.5677 37.6846 46.2408 37.5406 45.9269C37.4206 45.613 37.3606 45.3515 37.3606 45.1422C37.3606 44.6452 37.5526 44.2921 37.9366 44.0829C38.3206 43.8474 39.0046 43.7297 39.9886 43.7297H40.7446Z" fill="#81613C"/>
<path d="M70.8483 60.6749C69.4323 60.6749 68.4243 60.4395 67.8243 59.9687C67.2243 59.4979 66.9243 58.8178 66.9243 57.9285C66.9243 57.4315 67.0323 56.8822 67.2483 56.2806C67.4883 55.6529 67.8243 54.8681 68.2563 53.9265C68.9043 52.4617 69.3963 51.2193 69.7323 50.1992C70.0683 49.1791 70.2363 48.1328 70.2363 47.0604C70.2363 46.2495 70.1163 45.504 69.8763 44.824C69.6363 44.1439 69.3003 43.3853 68.8683 42.5483C68.6763 42.2083 68.5083 41.8813 68.3643 41.5674C68.2443 41.2536 68.1843 40.992 68.1843 40.7827C68.1843 40.2858 68.3763 39.9326 68.7603 39.7234C69.1683 39.488 69.8643 39.3703 70.8483 39.3703H71.6043C72.5883 39.3703 73.2723 39.488 73.6563 39.7234C74.0403 39.9326 74.2323 40.2858 74.2323 40.7827C74.2323 40.992 74.1603 41.2536 74.0163 41.5674C73.8963 41.8813 73.7403 42.2083 73.5483 42.5483C73.1163 43.3853 72.7803 44.1439 72.5403 44.824C72.3003 45.504 72.1803 46.2495 72.1803 47.0604C72.1803 48.1328 72.3483 49.2052 72.6843 50.2776C73.0443 51.3239 73.5483 52.5402 74.1963 53.9265C74.6283 54.8681 74.9523 55.6529 75.1683 56.2806C75.4083 56.8822 75.5283 57.4315 75.5283 57.9285C75.5283 58.8178 75.2283 59.4979 74.6283 59.9687C74.0283 60.4395 73.0203 60.6749 71.6043 60.6749H70.8483Z" fill="#4F7942"/>
<path d="M57.7252 65.0344C56.3092 65.0082 55.3012 64.7074 54.7012 64.132C54.1252 63.5304 53.8372 62.6541 53.8372 61.5032C53.8372 60.8493 53.9452 60.13 54.1612 59.3453C54.3772 58.5606 54.7132 57.5274 55.1692 56.2457C55.7932 54.4932 56.2732 52.9369 56.6092 51.5767C56.9692 50.1904 57.1492 48.8041 57.1492 47.4178C57.1492 46.3715 57.0052 45.4168 56.7172 44.5537C56.4292 43.6905 56.0332 42.7096 55.5292 41.611C55.2412 41.0356 55.0252 40.5778 54.8812 40.2378C54.7612 39.8978 54.7012 39.5839 54.7012 39.2961C54.7012 38.6684 54.9172 38.2106 55.3492 37.9229C55.8052 37.6352 56.5972 37.4913 57.7252 37.4913H58.5532C59.6812 37.4913 60.4612 37.6352 60.8932 37.9229C61.3252 38.2106 61.5412 38.6684 61.5412 39.2961C61.5412 39.5839 61.4692 39.8978 61.3252 40.2378C61.2052 40.5517 61.0012 41.0225 60.7132 41.6503C60.2332 42.6442 59.8492 43.5597 59.5612 44.3967C59.2732 45.2076 59.1172 46.11 59.0932 47.1039C60.2452 44.8545 61.6492 43.7297 63.3052 43.7297C64.6012 43.7297 65.7172 44.3575 66.6532 45.613C67.6132 46.8685 68.3332 48.4772 68.8132 50.4389C69.2932 52.4007 69.5332 54.4148 69.5332 56.4811C69.5332 58.966 69.0292 61.0193 68.0212 62.6411C67.0132 64.2366 65.4412 65.0344 63.3052 65.0344H57.7252ZM60.1732 53.6954C60.1732 55.1079 60.4492 56.285 61.0012 57.2266C61.5532 58.1421 62.3932 58.5998 63.5212 58.5998C64.6252 58.5998 65.4532 58.1421 66.0052 57.2266C66.5572 56.285 66.8332 55.1079 66.8332 53.6954C66.8332 52.0214 66.5332 50.5174 65.9332 49.1834C65.3572 47.8494 64.5532 47.1824 63.5212 47.1824C62.4652 47.1824 61.6372 47.8494 61.0372 49.1834C60.4612 50.5174 60.1732 52.0214 60.1732 53.6954Z" fill="#CC6666"/>
</svg>
